# xmcd
#
# Track frame offsets: 
#        150
#        11983
#        21608
#        29075
#        38730
#        48835
#        58945
#        67178
#        74768
#        84728
#        93015
#        100105
#        112613
#        127070
#        135475
#        144870
#
# Disc length: 2079 seconds
#
# Revision: 0
# Processed by: cddbd v1.5.2PL0 Copyright (c) Steve Scherf et al.
# Submitted via: ExactAudioCopy v1.3
#
DISCID=e6081d10
DTITLE=Various Artist - ヨーデルのふるさと Disc-1
DYEAR=1900
DGENRE=Country
TTITLE0=アルダー合奏団 - アルプホルンのひびき～オステレックの日曜の朝
TTITLE1=ヨーデル：フェッスラー、クンツ、ショッホ - アペンツェルのヨーデルと鈴
TTITLE2=シュレッパー指揮、シュパイヘル少年合唱団 - いつも爽やかな風が吹く
TTITLE3=アルダー合奏団 - 親父なりに
TTITLE4=－センネレ・ホアホ - ヨーデル：フェッスラー、クンツ、ショッホ - 牛を呼びに
TTITLE5=アルダー合奏団 - 老いも若きも
TTITLE6=シュレッパー指揮、シュパイヘル少年合唱団 - お父さんはアペンツェル生まれ
TTITLE7=エルンスト・ゲリヒ指揮、シュラコール、６.プリマークラッセ - トゲンブルクのヨーデルとターラーシュヴィンゲン 
TTITLE8=セップ・フライ指揮、レントラーカペッレ・クールフィルステン - トゲンブルクのこだま
TTITLE9=エルンスト・ゲリヒ指揮、シュラコール、６.プリマークラッセ - アルプに登って
TTITLE10=エルンスト・ゲリヒ指揮、シュラコール、６.プリマークラッセ - ベンデルの上で
TTITLE11=カペッラ・アルピナ - 狩人はひた走る
TTITLE12=デクルティンス指揮、トルンス男声合唱団 - 森から出て
TTITLE13=デクルティンス指揮、トルンス男声合唱団 - 夕方はいつも
TTITLE14=モレル指揮、サメダン混声合唱団 - 夕方はいつも
TTITLE15=エルニ・チュリン家族合奏団 - セントへのあいさつ
EXTD=
EXTT0=
EXTT1=
EXTT2=
EXTT3=
EXTT4=
EXTT5=
EXTT6=
EXTT7=
EXTT8=
EXTT9=
EXTT10=
EXTT11=
EXTT12=
EXTT13=
EXTT14=
EXTT15=
PLAYORDER=
